<svg xmlns="http://www.w3.org/2000/svg" width="16" height="16" viewBox="0 0 16 16"><g><g><path fill="#44acff" d="M15.83 4.999V11.7A4.133 4.133 0 0 1 11.7 15.83H5A4.133 4.133 0 0 1 .87 11.7V5A4.133 4.133 0 0 1 4.999.87H11.7a4.133 4.133 0 0 1 4.129 4.128zM14.502 11.7V5c0-1.545-1.256-2.801-2.8-2.801H4.998a2.804 2.804 0 0 0-2.801 2.8v6.703a2.804 2.804 0 0 0 2.8 2.801h6.703a2.804 2.804 0 0 0 2.801-2.8zm-2.297-3.35a3.859 3.859 0 0 1-3.855 3.854A3.859 3.859 0 0 1 4.495 8.35 3.859 3.859 0 0 1 8.35 4.496a3.859 3.859 0 0 1 3.855 3.854zm-1.328 0A2.53 2.53 0 0 0 8.35 5.822 2.53 2.53 0 0 0 5.823 8.35a2.53 2.53 0 0 0 2.527 2.527 2.53 2.53 0 0 0 2.527-2.527zm2.178-4.696a.977.977 0 0 1 0 1.377.982.982 0 0 1-.689.285.98.98 0 0 1-.687-.285.981.981 0 0 1-.286-.689.978.978 0 0 1 .973-.973c.257 0 .508.104.689.285z"/></g></g></svg>