<svg xmlns="http://www.w3.org/2000/svg" width="17" height="14" viewBox="0 0 17 14"><g><g><path fill="#44acff" d="M16.897 1.92a6.658 6.658 0 0 1-1.916.524A3.345 3.345 0 0 0 16.448.6a6.676 6.676 0 0 1-2.118.81A3.336 3.336 0 0 0 8.646 4.45 9.467 9.467 0 0 1 1.77.966a3.335 3.335 0 0 0 1.032 4.453A3.31 3.31 0 0 1 1.293 5l-.001.043a3.337 3.337 0 0 0 2.676 3.27 3.322 3.322 0 0 1-1.506.058 3.34 3.34 0 0 0 3.115 2.316 6.692 6.692 0 0 1-4.938 1.38 9.436 9.436 0 0 0 5.113 1.5c6.135 0 9.49-5.083 9.49-9.49 0-.145-.004-.29-.01-.432a6.765 6.765 0 0 0 1.665-1.726z"/></g></g></svg>